<svg width="68" height="81" viewBox="0 0 68 81" fill="none" xmlns="http://www.w3.org/2000/svg">
<path d="M23.8684 40.8624C27.0369 41.9218 28.8514 43.3318 32.1184 46.5156C31.9774 42.3258 31.4198 40.1217 27.9211 36.9486C24.5038 34.3601 21.9439 33.3773 15.0395 33.3248C15.0976 37.7435 15.9421 40.1526 18.8026 44.3413C23.4519 48.0439 26.0513 49.0105 30.6711 48.6899C28.0422 46.0378 26.5671 44.5331 23.8684 40.8624Z" fill="black"/>
<path fill-rule="evenodd" clip-rule="evenodd" d="M33.2763 80C54.918 72.1064 62.8026 62.1706 67 41.1523V12.8862L33.2763 1L1 12.8862V41.1523C4.18421 62.1706 14.9807 72.1626 33.2763 80ZM33.2763 5.05872L4.18421 15.0606V41.1523C6.14412 50.751 9.02963 57.1979 13.4574 62.1706C19.054 60.2768 23.7168 59.8996 32.1184 59.6014C31.544 55.3403 31.5205 52.9511 32.1184 48.6899C33.9451 43.7892 35.0708 41.0394 39.7895 36.0789C44.1223 33.2255 46.9432 32.4351 52.5263 32.1651C52.4402 37.3562 51.616 40.3454 47.6053 45.9358C43.189 48.9805 40.5112 50.0253 35.1579 49.9945L41.9605 42.8917C39.8061 43.965 38.439 44.7778 34.5789 48.1101C33.6714 53.3207 33.6674 55.8682 34.5789 59.7317C43.7717 60.2988 46.4437 60.8267 53.0763 62.137L53.2466 62.1706C57.9505 56.8507 60.6187 50.2753 62.8026 41.1523V15.0606L33.2763 5.05872ZM15.4337 64.2C19.8748 68.3785 25.6671 71.5318 33.2763 74.9266C41.2974 71.6058 47.0272 68.2589 51.2892 64.2C42.7899 62.8148 38.3486 62.1692 33.2763 62.1706C24.6051 62.2211 20.958 62.7785 15.4337 64.2Z" fill="black"/>
<path d="M32.9868 34.6294C34.2063 34.3814 34.6758 33.9983 35.1579 32.8899C35.0169 31.9482 34.7865 31.4763 32.9868 31.1505C31.9421 31.3588 31.4585 31.6655 30.9605 32.8899C31.1373 34.2002 31.635 34.5254 32.9868 34.6294Z" fill="black"/>
<path d="M28.9342 30.5706L26.9079 28.3963C28.7515 26.4485 30.0714 25.1933 32.9868 24.9174C35.9022 24.6416 37.4381 25.8882 39.0658 27.6716L37.1842 29.8459C35.7605 28.37 35.1579 27.8165 32.9868 27.8165C31.028 27.8165 30.2465 28.8456 29.2628 30.1412C29.1562 30.2816 29.0473 30.425 28.9342 30.5706Z" fill="black"/>
<path d="M32.9868 21.5835C37.3289 21.5835 39.0675 23.205 41.2368 25.6422L43.4079 23.178C40.0379 20.3203 37.7632 18.5394 32.9868 18.5394C28.2105 18.5394 25.8396 20.5031 22.5658 23.9028L24.8816 26.0771C26.614 23.8213 28.6447 21.5835 32.9868 21.5835Z" fill="black"/>
<path d="M45.2895 20.5688L47.4605 18.5394C43.2075 14.1298 40.8026 12.1615 33.2763 12.1615C25.75 12.1615 22.7142 14.411 18.5132 19.4092L20.3947 21.1486C24.4466 16.9297 27.1974 15.0606 33.2763 15.0606C39.3119 15.0606 40.8618 16.4888 45.1956 20.4823L45.2895 20.5688Z" fill="black"/>
<path d="M53.2466 62.1706C57.9505 56.8507 60.6187 50.2753 62.8026 41.1523V15.0606L33.2763 5.05872L4.18421 15.0606V41.1523C6.14412 50.751 9.02963 57.1979 13.4574 62.1706C19.054 60.2768 23.7168 59.8996 32.1184 59.6014C31.544 55.3403 31.5205 52.9511 32.1184 48.6899C33.9451 43.7892 35.0708 41.0394 39.7895 36.0789C44.1223 33.2255 46.9432 32.4351 52.5263 32.1651C52.4402 37.3562 51.616 40.3454 47.6053 45.9358C43.189 48.9805 40.5112 50.0253 35.1579 49.9945L41.9605 42.8917C39.8061 43.965 38.439 44.7778 34.5789 48.1101C33.6714 53.3207 33.6674 55.8682 34.5789 59.7317C43.7717 60.2988 46.4437 60.8267 53.0763 62.137M53.2466 62.1706L53.0763 62.137M53.2466 62.1706C53.1895 62.1594 53.1328 62.1482 53.0763 62.137M45.2895 20.5688L47.4605 18.5394C43.2075 14.1298 40.8026 12.1615 33.2763 12.1615C25.75 12.1615 22.7142 14.411 18.5132 19.4092L20.3947 21.1486C24.4466 16.9297 27.1974 15.0606 33.2763 15.0606C39.3119 15.0606 40.8618 16.4888 45.1956 20.4823M45.2895 20.5688L45.1956 20.4823M45.2895 20.5688C45.258 20.5398 45.2267 20.511 45.1956 20.4823M33.2763 80C54.918 72.1064 62.8026 62.1706 67 41.1523V12.8862L33.2763 1L1 12.8862V41.1523C4.18421 62.1706 14.9807 72.1626 33.2763 80ZM33.2763 74.9266C25.6671 71.5318 19.8748 68.3786 15.4337 64.2C20.958 62.7785 24.6051 62.2211 33.2763 62.1706C38.3486 62.1692 42.7899 62.8148 51.2892 64.2C47.0272 68.2589 41.2974 71.6058 33.2763 74.9266ZM23.8684 40.8624C27.0369 41.9218 28.8514 43.3318 32.1184 46.5156C31.9774 42.3258 31.4198 40.1217 27.9211 36.9486C24.5038 34.3601 21.9439 33.3773 15.0395 33.3248C15.0976 37.7435 15.9421 40.1526 18.8026 44.3413C23.4519 48.0439 26.0513 49.0105 30.6711 48.6899C28.0422 46.0378 26.5671 44.5331 23.8684 40.8624ZM32.9868 34.6294C34.2063 34.3814 34.6758 33.9983 35.1579 32.8899C35.0169 31.9482 34.7865 31.4763 32.9868 31.1505C31.9421 31.3588 31.4585 31.6655 30.9605 32.8899C31.1373 34.2002 31.635 34.5254 32.9868 34.6294ZM28.9342 30.5706L26.9079 28.3963C28.7515 26.4485 30.0714 25.1933 32.9868 24.9174C35.9022 24.6416 37.4381 25.8882 39.0658 27.6716L37.1842 29.8459C35.7605 28.37 35.1579 27.8165 32.9868 27.8165C31.028 27.8165 30.2465 28.8456 29.2628 30.1412C29.1562 30.2816 29.0473 30.425 28.9342 30.5706ZM32.9868 21.5835C37.3289 21.5835 39.0675 23.205 41.2368 25.6422L43.4079 23.178C40.0379 20.3203 37.7632 18.5394 32.9868 18.5394C28.2105 18.5394 25.8396 20.5031 22.5658 23.9028L24.8816 26.0771C26.614 23.8213 28.6447 21.5835 32.9868 21.5835Z" stroke="black"/>
</svg>
