<svg width="42" height="50" viewBox="0 0 42 50" fill="none" xmlns="http://www.w3.org/2000/svg">
<path d="M14.8882 25.2202C16.8125 25.8639 17.9144 26.7206 19.8985 28.655C19.8129 26.1094 19.4742 24.7702 17.3494 22.8422C15.2741 21.2694 13.7194 20.6723 9.52632 20.6404C9.56159 23.3252 10.0745 24.7889 11.8117 27.3339C14.6353 29.5836 16.2139 30.171 19.0195 29.9761C17.423 28.3648 16.5272 27.4505 14.8882 25.2202Z" fill="#588357"/>
<path fill-rule="evenodd" clip-rule="evenodd" d="M20.6017 49C33.745 44.2039 38.5334 38.167 41.0825 25.3963V8.22202L20.6017 1L1 8.22202V25.3963C2.9338 38.167 9.49062 44.238 20.6017 49ZM20.6017 3.46606L2.9338 9.54312V25.3963C4.12407 31.2285 5.87648 35.1456 8.5655 38.167C11.9644 37.0163 14.7961 36.7871 19.8985 36.6059C19.5497 34.0169 19.5354 32.5652 19.8985 29.9761C21.0079 26.9985 21.6916 25.3278 24.5572 22.3138C27.1886 20.5801 28.9018 20.0998 32.2925 19.9358C32.2402 23.0898 31.7396 24.9061 29.3039 28.3028C26.6218 30.1527 24.9955 30.7876 21.7444 30.7688L25.8757 26.4532C24.5674 27.1053 23.7371 27.5991 21.3928 29.6239C20.8417 32.7898 20.8392 34.3376 21.3928 36.6851C26.9757 37.0297 28.5984 37.3504 32.6265 38.1465L32.7299 38.167C35.5866 34.9346 37.207 30.9394 38.5334 25.3963V9.54312L20.6017 3.46606ZM9.76574 39.4C12.4629 41.9389 15.9806 43.8548 20.6017 45.9174C25.473 43.8997 28.9528 41.8662 31.5412 39.4C26.3794 38.5583 23.6822 38.1661 20.6017 38.167C15.3356 38.1976 13.1207 38.5363 9.76574 39.4Z" fill="#578256"/>
<path d="M20.4259 21.433C21.1665 21.2824 21.4517 21.0496 21.7444 20.3761C21.6588 19.804 21.5189 19.5173 20.4259 19.3193C19.7915 19.4459 19.4977 19.6322 19.1953 20.3761C19.3027 21.1723 19.605 21.3699 20.4259 21.433Z" fill="#578256"/>
<path d="M17.9647 18.967L16.7341 17.6459C17.8538 16.4624 18.6554 15.6997 20.4259 15.5321C22.1965 15.3645 23.1292 16.122 24.1177 17.2055L22.975 18.5266C22.1104 17.6299 21.7444 17.2936 20.4259 17.2936C19.2363 17.2936 18.7617 17.9189 18.1643 18.7061C18.0996 18.7913 18.0334 18.8785 17.9647 18.967Z" fill="#578256"/>
<path d="M20.4259 13.5064C23.0629 13.5064 24.1188 14.4916 25.4362 15.9725L26.7547 14.4752C24.7081 12.7389 23.3266 11.6569 20.4259 11.6569C17.5252 11.6569 16.0853 12.85 14.0971 14.9156L15.5035 16.2367C16.5556 14.8661 17.7889 13.5064 20.4259 13.5064Z" fill="#578256"/>
<path d="M27.8974 12.8899L29.216 11.6569C26.6331 8.97761 25.1725 7.78165 20.6017 7.78165C16.0309 7.78165 14.1873 9.14846 11.6359 12.1853L12.7786 13.2422C15.2394 10.6788 16.9099 9.54312 20.6017 9.54312C24.2672 9.54312 25.2085 10.4109 27.8404 12.8373L27.8974 12.8899Z" fill="#578256"/>
<path d="M20.6017 45.9174C15.9806 43.8548 12.4629 41.9389 9.76574 39.4C13.1207 38.5363 15.3356 38.1976 20.6017 38.167C23.6822 38.1661 26.3794 38.5583 31.5412 39.4C28.9528 41.8662 25.473 43.8997 20.6017 45.9174Z" fill="#A4D39A"/>
<path fill-rule="evenodd" clip-rule="evenodd" d="M2.9338 9.54312L20.6017 3.46606L38.5334 9.54312V25.3963C37.207 30.9394 35.5866 34.9346 32.7299 38.167L32.6265 38.1465C28.5984 37.3504 26.9757 37.0297 21.3928 36.6851C20.8392 34.3376 20.8417 32.7898 21.3928 29.6239C23.7371 27.5991 24.5674 27.1053 25.8757 26.4532L21.7444 30.7688C24.9955 30.7876 26.6218 30.1527 29.3039 28.3028C31.7396 24.9061 32.2402 23.0898 32.2925 19.9358C28.9018 20.0998 27.1886 20.5801 24.5572 22.3138C21.6916 25.3278 21.0079 26.9985 19.8985 29.9761C19.5354 32.5652 19.5497 34.0169 19.8985 36.6059C14.7961 36.7871 11.9644 37.0163 8.5655 38.167C5.87648 35.1456 4.12407 31.2285 2.9338 25.3963V9.54312ZM19.8985 28.655C17.9144 26.7206 16.8125 25.8639 14.8882 25.2202C16.5272 27.4505 17.423 28.3648 19.0195 29.9761C16.2139 30.171 14.6353 29.5836 11.8117 27.3339C10.0745 24.7889 9.56159 23.3252 9.52632 20.6404C13.7194 20.6723 15.2741 21.2694 17.3494 22.8422C19.4742 24.7702 19.8129 26.1094 19.8985 28.655ZM21.7444 20.3761C21.4517 21.0496 21.1665 21.2824 20.4259 21.433C19.605 21.3699 19.3027 21.1723 19.1953 20.3761C19.4977 19.6322 19.7915 19.4459 20.4259 19.3193C21.5189 19.5173 21.6588 19.804 21.7444 20.3761ZM16.7341 17.6459L17.9647 18.967C18.0334 18.8785 18.0996 18.7913 18.1643 18.7061C18.7617 17.9189 19.2363 17.2936 20.4259 17.2936C21.7444 17.2936 22.1104 17.6299 22.975 18.5266L24.1177 17.2055C23.1292 16.122 22.1965 15.3645 20.4259 15.5321C18.6554 15.6997 17.8538 16.4624 16.7341 17.6459ZM25.4362 15.9725C24.1188 14.4916 23.0629 13.5064 20.4259 13.5064C17.7889 13.5064 16.5556 14.8661 15.5035 16.2367L14.0971 14.9156C16.0853 12.85 17.5252 11.6569 20.4259 11.6569C23.3266 11.6569 24.7081 12.7389 26.7547 14.4752L25.4362 15.9725ZM29.216 11.6569L27.8974 12.8899L27.8404 12.8373C25.2085 10.4109 24.2672 9.54312 20.6017 9.54312C16.9099 9.54312 15.2394 10.6788 12.7786 13.2422L11.6359 12.1853C14.1873 9.14846 16.0309 7.78165 20.6017 7.78165C25.1725 7.78165 26.6331 8.97761 29.216 11.6569Z" fill="#FFFCF1"/>
<path d="M32.7299 38.167C35.5866 34.9346 37.207 30.9394 38.5334 25.3963V9.54312L20.6017 3.46606L2.9338 9.54312V25.3963C4.12407 31.2285 5.87648 35.1456 8.5655 38.167C11.9644 37.0163 14.7961 36.7871 19.8985 36.6059C19.5497 34.0169 19.5354 32.5652 19.8985 29.9761C21.0079 26.9985 21.6916 25.3278 24.5572 22.3138C27.1886 20.5801 28.9018 20.0998 32.2925 19.9358C32.2402 23.0898 31.7396 24.9061 29.3039 28.3028C26.6218 30.1527 24.9955 30.7876 21.7444 30.7688L25.8757 26.4532C24.5674 27.1053 23.7371 27.5991 21.3928 29.6239C20.8417 32.7898 20.8392 34.3376 21.3928 36.6851C26.9757 37.0297 28.5984 37.3504 32.6265 38.1465M32.7299 38.167L32.6265 38.1465M32.7299 38.167C32.6952 38.1601 32.6608 38.1533 32.6265 38.1465M27.8974 12.8899L29.216 11.6569C26.6331 8.97761 25.1725 7.78165 20.6017 7.78165C16.0309 7.78165 14.1873 9.14846 11.6359 12.1853L12.7786 13.2422C15.2394 10.6788 16.9099 9.54312 20.6017 9.54312C24.2672 9.54312 25.2085 10.4109 27.8404 12.8373M27.8974 12.8899L27.8404 12.8373M27.8974 12.8899C27.8784 12.8723 27.8594 12.8548 27.8404 12.8373M20.6017 49C33.745 44.2039 38.5334 38.167 41.0825 25.3963V8.22202L20.6017 1L1 8.22202V25.3963C2.9338 38.167 9.49062 44.238 20.6017 49ZM20.6017 45.9174C15.9806 43.8548 12.4629 41.9389 9.76574 39.4C13.1207 38.5363 15.3356 38.1976 20.6017 38.167C23.6822 38.1661 26.3794 38.5583 31.5412 39.4C28.9528 41.8662 25.473 43.8997 20.6017 45.9174ZM14.8882 25.2202C16.8125 25.8639 17.9144 26.7206 19.8985 28.655C19.8129 26.1094 19.4742 24.7702 17.3494 22.8422C15.2741 21.2694 13.7194 20.6723 9.52632 20.6404C9.56159 23.3252 10.0745 24.7889 11.8117 27.3339C14.6353 29.5836 16.2139 30.171 19.0195 29.9761C17.423 28.3648 16.5272 27.4505 14.8882 25.2202ZM20.4259 21.433C21.1665 21.2824 21.4517 21.0496 21.7444 20.3761C21.6588 19.804 21.5189 19.5173 20.4259 19.3193C19.7915 19.4459 19.4977 19.6322 19.1953 20.3761C19.3027 21.1723 19.605 21.3699 20.4259 21.433ZM17.9647 18.967L16.7341 17.6459C17.8538 16.4624 18.6554 15.6997 20.4259 15.5321C22.1965 15.3645 23.1292 16.122 24.1177 17.2055L22.975 18.5266C22.1104 17.6299 21.7444 17.2936 20.4259 17.2936C19.2363 17.2936 18.7617 17.9189 18.1643 18.7061C18.0996 18.7913 18.0334 18.8785 17.9647 18.967ZM20.4259 13.5064C23.0629 13.5064 24.1188 14.4916 25.4362 15.9725L26.7547 14.4752C24.7081 12.7389 23.3266 11.6569 20.4259 11.6569C17.5252 11.6569 16.0853 12.85 14.0971 14.9156L15.5035 16.2367C16.5556 14.8661 17.7889 13.5064 20.4259 13.5064Z" stroke="#578256"/>
</svg>
